# xmcd
#
# Track frame offsets:
#	150
#	24607
#	47850
#	69325
#	87617
#	108245
#	127302
#	149310
#	169547
#	189547
#	204550
#
# Disc length: 3040 seconds
#
# Revision: 1
# Processed by: cddbd v1.5.1PL0 Copyright (c) Steve Scherf et al.
# Submitted via: CDex 1.50Beta5
#
DISCID=a10bde0b
DTITLE=柳ジョージ - NIGHT OWL CLUB
DYEAR=1987
DGENRE=Pop
TTITLE0=5 TO 0(FIVE TO MIDNIGHT)
TTITLE1=FOR GIVENESS
TTITLE2=NIGHTMARE
TTITLE3=MISSING TOWN
TTITLE4=MOVE ON
TTITLE5=SEARCHIN’ FOR MY LOVE
TTITLE6=LONELY CENTURY
TTITLE7=FRANKIE
TTITLE8=GOLDEN TIME
TTITLE9=BIG FISH
TTITLE10=GASOLINE ALLEY
EXTD=
EXTT0=
EXTT1=
EXTT2=
EXTT3=
EXTT4=
EXTT5=
EXTT6=
EXTT7=
EXTT8=
EXTT9=
EXTT10=
PLAYORDER=
